<?xml version="1.0" encoding="utf-8"?>
<!-- Generator: Adobe Illustrator 24.0.0, SVG Export Plug-In . SVG Version: 6.00 Build 0)  -->
<svg version="1.1" id="Layer_1" xmlns="http://www.w3.org/2000/svg" xmlns:xlink="http://www.w3.org/1999/xlink" x="0px" y="0px"
	 width="35px" height="35px" viewBox="0 0 35 35" enable-background="new 0 0 35 35" xml:space="preserve">
<g>
	<path fill="none" stroke="#808080" stroke-width="1.5" d="M10.1,14.3c0.9,1.5,2.1,2.8,3.2,4.1c1.7,1.8,3.4,3.5,5.4,5.1
		c0.7,0.6,2.8,1.9,3.2,1.4c0.4-0.5,0.7-1,1.1-1.5c1-1.5,2.8-1.6,4.1-0.8c1.6,1.1,3.2,2.2,4.7,3.3c1.2,0.9,1.6,2.2,1,3.5
		c-0.9,2.2-2.6,3.3-4.9,3.6c-1.4,0.2-10.9-1.1-19-10c-8.1-9-7-14.7-6.8-16c0.3-1.8,1.1-3.2,2.6-4.2c1.7-1.1,3.5-0.9,4.6,0.8
		c1,1.5,2,2.9,3,4.4C13.3,9.2,13,11,12,11.8S9.5,13.3,10.1,14.3z"/>
</g>
<g>
</g>
<g>
</g>
<g>
</g>
<g>
</g>
<g>
</g>
<g>
</g>
<g>
</g>
<g>
</g>
<g>
</g>
<g>
</g>
<g>
</g>
<g>
</g>
<g>
</g>
<g>
</g>
<g>
</g>
</svg>
